<mxfile host="app.diagrams.net" modified="2022-07-01T06:58:16.139Z" agent="5.0 (Windows NT 10.0; Win64; x64) AppleWebKit/537.36 (KHTML, like Gecko) Chrome/103.0.0.0 Safari/537.36" etag="zTJStci3LdRdtHbmxckg" version="20.0.4" type="github">
  <diagram id="H8sKvNLYeGYYgpnOA4Lh" name="Page-1">
    <mxGraphModel dx="1848" dy="1158" grid="1" gridSize="10" guides="1" tooltips="1" connect="1" arrows="1" fold="1" page="1" pageScale="1" pageWidth="827" pageHeight="1169" math="0" shadow="0">
      <root>
        <mxCell id="0" />
        <mxCell id="1" parent="0" />
        <mxCell id="yj0m9xsuMrxqKraFNKyC-1" value="Start" style="ellipse;whiteSpace=wrap;html=1;" vertex="1" parent="1">
          <mxGeometry x="340" y="150" width="120" height="80" as="geometry" />
        </mxCell>
        <mxCell id="yj0m9xsuMrxqKraFNKyC-2" value="Username" style="html=1;strokeWidth=2;shape=manualInput;whiteSpace=wrap;rounded=1;size=26;arcSize=11;" vertex="1" parent="1">
          <mxGeometry x="350" y="270" width="100" height="60" as="geometry" />
        </mxCell>
        <mxCell id="yj0m9xsuMrxqKraFNKyC-3" value="Password" style="html=1;strokeWidth=2;shape=manualInput;whiteSpace=wrap;rounded=1;size=26;arcSize=11;" vertex="1" parent="1">
          <mxGeometry x="350" y="370" width="100" height="60" as="geometry" />
        </mxCell>
        <mxCell id="yj0m9xsuMrxqKraFNKyC-4" value="Submit Login" style="rounded=1;whiteSpace=wrap;html=1;absoluteArcSize=1;arcSize=14;strokeWidth=2;" vertex="1" parent="1">
          <mxGeometry x="345" y="470" width="110" height="50" as="geometry" />
        </mxCell>
        <mxCell id="yj0m9xsuMrxqKraFNKyC-5" value="Username Valid" style="strokeWidth=2;html=1;shape=mxgraph.flowchart.decision;whiteSpace=wrap;" vertex="1" parent="1">
          <mxGeometry x="350" y="560" width="100" height="100" as="geometry" />
        </mxCell>
        <mxCell id="yj0m9xsuMrxqKraFNKyC-6" value="Password Valid" style="strokeWidth=2;html=1;shape=mxgraph.flowchart.decision;whiteSpace=wrap;" vertex="1" parent="1">
          <mxGeometry x="350" y="710" width="100" height="100" as="geometry" />
        </mxCell>
        <mxCell id="yj0m9xsuMrxqKraFNKyC-7" value="Navigasi ke dashboard" style="rounded=1;whiteSpace=wrap;html=1;absoluteArcSize=1;arcSize=14;strokeWidth=2;" vertex="1" parent="1">
          <mxGeometry x="345" y="860" width="110" height="50" as="geometry" />
        </mxCell>
        <mxCell id="yj0m9xsuMrxqKraFNKyC-8" value="" style="verticalLabelPosition=bottom;verticalAlign=top;html=1;shape=mxgraph.flowchart.on-page_reference;fillColor=#000000;" vertex="1" parent="1">
          <mxGeometry x="380" y="960" width="40" height="40" as="geometry" />
        </mxCell>
        <mxCell id="yj0m9xsuMrxqKraFNKyC-9" value="" style="endArrow=classic;html=1;rounded=0;exitX=0.5;exitY=1;exitDx=0;exitDy=0;entryX=0.498;entryY=-0.043;entryDx=0;entryDy=0;entryPerimeter=0;" edge="1" parent="1" source="yj0m9xsuMrxqKraFNKyC-3" target="yj0m9xsuMrxqKraFNKyC-4">
          <mxGeometry width="50" height="50" relative="1" as="geometry">
            <mxPoint x="390" y="430" as="sourcePoint" />
            <mxPoint x="440" y="380" as="targetPoint" />
          </mxGeometry>
        </mxCell>
        <mxCell id="yj0m9xsuMrxqKraFNKyC-10" value="" style="endArrow=classic;html=1;rounded=0;exitX=0.5;exitY=1;exitDx=0;exitDy=0;" edge="1" parent="1" source="yj0m9xsuMrxqKraFNKyC-1" target="yj0m9xsuMrxqKraFNKyC-2">
          <mxGeometry width="50" height="50" relative="1" as="geometry">
            <mxPoint x="380" y="320" as="sourcePoint" />
            <mxPoint x="430" y="270" as="targetPoint" />
          </mxGeometry>
        </mxCell>
        <mxCell id="yj0m9xsuMrxqKraFNKyC-11" value="" style="endArrow=classic;html=1;rounded=0;exitX=0.5;exitY=1;exitDx=0;exitDy=0;" edge="1" parent="1" source="yj0m9xsuMrxqKraFNKyC-2" target="yj0m9xsuMrxqKraFNKyC-3">
          <mxGeometry width="50" height="50" relative="1" as="geometry">
            <mxPoint x="380" y="390" as="sourcePoint" />
            <mxPoint x="430" y="340" as="targetPoint" />
          </mxGeometry>
        </mxCell>
        <mxCell id="yj0m9xsuMrxqKraFNKyC-12" value="" style="endArrow=classic;html=1;rounded=0;exitX=0.5;exitY=1;exitDx=0;exitDy=0;entryX=0.501;entryY=-0.02;entryDx=0;entryDy=0;entryPerimeter=0;" edge="1" parent="1" source="yj0m9xsuMrxqKraFNKyC-4" target="yj0m9xsuMrxqKraFNKyC-5">
          <mxGeometry width="50" height="50" relative="1" as="geometry">
            <mxPoint x="380" y="580" as="sourcePoint" />
            <mxPoint x="430" y="530" as="targetPoint" />
          </mxGeometry>
        </mxCell>
        <mxCell id="yj0m9xsuMrxqKraFNKyC-13" value="" style="endArrow=classic;html=1;rounded=0;entryX=0.5;entryY=0;entryDx=0;entryDy=0;entryPerimeter=0;" edge="1" parent="1" source="yj0m9xsuMrxqKraFNKyC-5" target="yj0m9xsuMrxqKraFNKyC-6">
          <mxGeometry relative="1" as="geometry">
            <mxPoint x="330" y="700" as="sourcePoint" />
            <mxPoint x="400" y="700" as="targetPoint" />
            <Array as="points">
              <mxPoint x="400" y="680" />
            </Array>
          </mxGeometry>
        </mxCell>
        <mxCell id="yj0m9xsuMrxqKraFNKyC-14" value="Ya" style="edgeLabel;resizable=0;html=1;align=center;verticalAlign=middle;fillColor=#000000;" connectable="0" vertex="1" parent="yj0m9xsuMrxqKraFNKyC-13">
          <mxGeometry relative="1" as="geometry" />
        </mxCell>
        <mxCell id="yj0m9xsuMrxqKraFNKyC-15" value="" style="endArrow=classic;html=1;rounded=0;exitX=0;exitY=0.5;exitDx=0;exitDy=0;exitPerimeter=0;entryX=-0.001;entryY=0.836;entryDx=0;entryDy=0;entryPerimeter=0;" edge="1" parent="1" source="yj0m9xsuMrxqKraFNKyC-5" target="yj0m9xsuMrxqKraFNKyC-2">
          <mxGeometry relative="1" as="geometry">
            <mxPoint x="360" y="660" as="sourcePoint" />
            <mxPoint x="330" y="370" as="targetPoint" />
            <Array as="points">
              <mxPoint x="320" y="610" />
              <mxPoint x="320" y="320" />
            </Array>
          </mxGeometry>
        </mxCell>
        <mxCell id="yj0m9xsuMrxqKraFNKyC-16" value="Tidak" style="edgeLabel;resizable=0;html=1;align=center;verticalAlign=middle;fillColor=#000000;" connectable="0" vertex="1" parent="yj0m9xsuMrxqKraFNKyC-15">
          <mxGeometry relative="1" as="geometry" />
        </mxCell>
        <mxCell id="yj0m9xsuMrxqKraFNKyC-17" value="" style="endArrow=classic;html=1;rounded=0;exitX=0;exitY=0.5;exitDx=0;exitDy=0;exitPerimeter=0;entryX=-0.007;entryY=0.829;entryDx=0;entryDy=0;entryPerimeter=0;" edge="1" parent="1" source="yj0m9xsuMrxqKraFNKyC-6" target="yj0m9xsuMrxqKraFNKyC-3">
          <mxGeometry relative="1" as="geometry">
            <mxPoint x="350" y="740" as="sourcePoint" />
            <mxPoint x="349.9000000000001" y="450.15999999999997" as="targetPoint" />
            <Array as="points">
              <mxPoint x="280" y="760" />
              <mxPoint x="280" y="420" />
            </Array>
          </mxGeometry>
        </mxCell>
        <mxCell id="yj0m9xsuMrxqKraFNKyC-18" value="Tidak" style="edgeLabel;resizable=0;html=1;align=center;verticalAlign=middle;fillColor=#000000;" connectable="0" vertex="1" parent="yj0m9xsuMrxqKraFNKyC-17">
          <mxGeometry relative="1" as="geometry" />
        </mxCell>
        <mxCell id="yj0m9xsuMrxqKraFNKyC-20" value="" style="endArrow=classic;html=1;rounded=0;entryX=0.5;entryY=0;entryDx=0;entryDy=0;entryPerimeter=0;" edge="1" parent="1">
          <mxGeometry relative="1" as="geometry">
            <mxPoint x="399.76" y="810" as="sourcePoint" />
            <mxPoint x="399.76" y="859.9999999999999" as="targetPoint" />
            <Array as="points">
              <mxPoint x="399.76" y="830" />
            </Array>
          </mxGeometry>
        </mxCell>
        <mxCell id="yj0m9xsuMrxqKraFNKyC-21" value="Ya" style="edgeLabel;resizable=0;html=1;align=center;verticalAlign=middle;fillColor=#000000;" connectable="0" vertex="1" parent="yj0m9xsuMrxqKraFNKyC-20">
          <mxGeometry relative="1" as="geometry" />
        </mxCell>
        <mxCell id="yj0m9xsuMrxqKraFNKyC-22" value="" style="endArrow=classic;html=1;rounded=0;exitX=0.5;exitY=1;exitDx=0;exitDy=0;entryX=0.5;entryY=0;entryDx=0;entryDy=0;entryPerimeter=0;" edge="1" parent="1" source="yj0m9xsuMrxqKraFNKyC-7" target="yj0m9xsuMrxqKraFNKyC-8">
          <mxGeometry width="50" height="50" relative="1" as="geometry">
            <mxPoint x="350" y="940" as="sourcePoint" />
            <mxPoint x="400" y="890" as="targetPoint" />
          </mxGeometry>
        </mxCell>
      </root>
    </mxGraphModel>
  </diagram>
</mxfile>
